<svg width="62" height="50" viewBox="0 0 62 50" fill="none" xmlns="http://www.w3.org/2000/svg">
<path d="M31.0002 27.5C40.4166 27.5 48.0502 21.3439 48.0502 13.75C48.0502 6.15608 40.4166 0 31.0002 0C21.5837 0 13.9502 6.15608 13.9502 13.75C13.9502 21.3439 21.5837 27.5 31.0002 27.5Z" fill="#FAA52C"/>
<path d="M40.3 30H21.7C15.9448 30 10.4253 31.8437 6.35578 35.1256C2.28624 38.4075 0 42.8587 0 47.5C0 48.163 0.326606 48.7989 0.907969 49.2678C1.48933 49.7366 2.27783 50 3.1 50H58.9C59.7222 50 60.5107 49.7366 61.092 49.2678C61.6734 48.7989 62 48.163 62 47.5C62 42.8587 59.7138 38.4075 55.6442 35.1256C51.5747 31.8437 46.0552 30 40.3 30Z" fill="#FAA52C"/>
<path d="M31 27.5C27.6278 27.5 24.3314 26.6936 21.5275 25.1827C18.7237 23.6718 16.5383 21.5244 15.2479 19.0119C13.9574 16.4994 13.6197 13.7348 14.2776 11.0675C14.9355 8.40027 16.5593 5.95026 18.9438 4.02729C21.3283 2.10432 24.3663 0.794755 27.6737 0.264209C30.9811 -0.266338 34.4093 0.00595772 37.5248 1.04666C40.6402 2.08737 43.3031 3.84974 45.1766 6.11091C47.05 8.37209 48.05 11.0305 48.05 13.75C48.0418 17.3947 46.2428 20.8882 43.0471 23.4654C39.8514 26.0426 35.5194 27.4934 31 27.5ZM31 5.00001C28.8541 5.00001 26.7563 5.51318 24.9721 6.47465C23.1878 7.43611 21.7971 8.80267 20.9759 10.4015C20.1547 12.0004 19.9398 13.7597 20.3585 15.457C20.7771 17.1544 21.8105 18.7135 23.3279 19.9372C24.8453 21.1609 26.7786 21.9943 28.8833 22.3319C30.988 22.6695 33.1695 22.4962 35.1521 21.834C37.1347 21.1717 38.8292 20.0502 40.0214 18.6112C41.2137 17.1723 41.85 15.4806 41.85 13.75C41.85 11.4294 40.7069 9.20376 38.6721 7.56282C36.6373 5.92188 33.8776 5.00001 31 5.00001ZM58.9 50H3.1C2.27783 50 1.48933 49.7366 0.907969 49.2678C0.326606 48.7989 0 48.163 0 47.5C0 42.8587 2.28624 38.4075 6.35578 35.1256C10.4253 31.8438 15.9448 30 21.7 30H40.3C46.0552 30 51.5747 31.8438 55.6442 35.1256C59.7138 38.4075 62 42.8587 62 47.5C62 48.163 61.6734 48.7989 61.092 49.2678C60.5107 49.7366 59.7222 50 58.9 50ZM6.51 45H31H55.49C54.7754 42.1766 52.873 39.639 50.105 37.8167C47.337 35.9945 43.8732 34.9994 40.3 35H21.7C18.1268 34.9994 14.663 35.9945 11.895 37.8167C9.12696 39.639 7.22464 42.1766 6.51 45Z" fill="white"/>
</svg>
