<svg width="62" height="50" viewBox="0 0 62 50" fill="none" xmlns="http://www.w3.org/2000/svg">
<path d="M61.9518 36.9565C61.9518 36.7283 61.938 36.4978 61.8209 36.2696L54.932 23.2261C54.705 22.7928 54.2672 22.4159 53.6809 22.1489C53.0945 21.8819 52.3897 21.7385 51.6667 21.7391H49.7343L52.0834 20.2652C54.019 19.0416 55.1061 17.3833 55.1061 15.6543C55.1061 13.9254 54.019 12.267 52.0834 11.0435C49.2934 9.27826 44.9603 8.7 41.3333 9.50217V6.52174C41.3333 2.92609 36.6971 0 31 0C25.3029 0 20.6667 2.92609 20.6667 6.52174V9.50217C17.0431 8.7 12.7066 9.27826 9.91656 11.0435C7.98069 12.2681 6.89408 13.9276 6.89537 15.6574C6.89666 17.3873 7.98575 19.0461 9.92344 20.2696L12.2657 21.7391H10.3333C9.61033 21.7385 8.90546 21.8819 8.31914 22.1489C7.73282 22.4159 7.29498 22.7928 7.068 23.2261L0.179111 36.2696C0.0780586 36.4927 0.0338769 36.7246 0.048222 36.9565C-2.12342e-07 36.9565 0 47.8261 0 47.8261C0 48.4026 0.362896 48.9556 1.00885 49.3633C1.65481 49.771 2.53092 50 3.44444 50H58.5556C59.4691 50 60.3452 49.771 60.9911 49.3633C61.6371 48.9556 62 48.4026 62 47.8261C62 47.8261 62 36.9565 61.9518 36.9565ZM14.787 14.1174C15.4329 13.7098 16.3089 13.4809 17.2222 13.4809C18.1356 13.4809 19.0115 13.7098 19.6574 14.1174L27.5556 19.1022V6.52174C27.5556 5.94518 27.9185 5.39224 28.5644 4.98455C29.2104 4.57686 30.0865 4.34783 31 4.34783C31.9135 4.34783 32.7896 4.57686 33.4356 4.98455C34.0815 5.39224 34.4444 5.94518 34.4444 6.52174V19.1022L42.3426 14.1174C42.9991 13.7227 43.871 13.5025 44.7778 13.5025C45.6845 13.5025 46.5565 13.7227 47.213 14.1174C47.533 14.3186 47.787 14.5576 47.9605 14.8208C48.1341 15.084 48.2237 15.3662 48.2243 15.6513C48.225 15.9363 48.1366 16.2187 47.9642 16.4822C47.7919 16.7457 47.539 16.9852 47.2199 17.187L31 27.3696L14.787 17.1913C14.4669 16.9896 14.2129 16.75 14.0396 16.4863C13.8663 16.2226 13.7771 15.9399 13.7771 15.6543C13.7771 15.3688 13.8663 15.0861 14.0396 14.8224C14.2129 14.5587 14.4669 14.3191 14.787 14.1174ZM12.8168 26.087H19.1959L31.0069 33.5L42.8144 26.087H49.1936L54.9354 36.9565H7.07833L12.8168 26.087ZM55.1111 45.6522H6.88889V39.1304H55.1111V45.6522Z" fill="white"/>
</svg>
