<svg width="62" height="50" viewBox="0 0 62 50" fill="none" xmlns="http://www.w3.org/2000/svg">
<path d="M51.6664 0.000335214H10.3336C8.97322 -0.00954904 7.62403 0.199247 6.36481 0.61453C5.1056 1.02981 3.9616 1.64326 2.99962 2.41905C2.03764 3.19484 1.27697 4.11742 0.762018 5.13291C0.247066 6.14841 -0.0118408 7.23647 0.000415665 8.33356V41.6664C-0.0118408 42.7635 0.247066 43.8516 0.762018 44.8671C1.27697 45.8826 2.03764 46.8052 2.99962 47.581C3.9616 48.3567 5.1056 48.9702 6.36481 49.3855C7.62403 49.8008 8.97322 50.0095 10.3336 49.9997H51.6664C53.0268 50.0095 54.376 49.8008 55.6352 49.3855C56.8944 48.9702 58.0384 48.3567 59.0004 47.581C59.9624 46.8052 60.723 45.8826 61.238 44.8671C61.7529 43.8516 62.0118 42.7635 61.9996 41.6664V8.33356C62.0118 7.23647 61.7529 6.14841 61.238 5.13291C60.723 4.11742 59.9624 3.19484 59.0004 2.41905C58.0384 1.64326 56.8944 1.02981 55.6352 0.61453C54.376 0.199247 53.0268 -0.00954904 51.6664 0.000335214ZM59.7033 8.33356V9.25947H54.4449L59.0374 5.55582C59.5147 6.42977 59.7423 7.37909 59.7033 8.33356ZM57.6826 4.11139L51.1842 9.25947H42.9635L52.1486 1.85216C53.2061 1.8967 54.2414 2.11324 55.1924 2.48876C56.1435 2.86428 56.9905 3.39102 57.6826 4.03732V4.11139ZM31.4822 9.25947L40.6673 1.85216H48.8879L39.7028 9.25947H31.4822ZM20.0009 9.25947L29.1859 1.85216H37.4066L28.2215 9.25947H20.0009ZM8.51956 9.25947L17.7046 1.85216H25.9253L16.7402 9.25947H8.51956ZM10.3336 1.85216H14.4439L5.25886 9.25947H2.29668V8.33356C2.28437 7.47965 2.48384 6.63238 2.88337 5.84153C3.28291 5.05069 3.87444 4.33223 4.6232 3.72839C5.37197 3.12455 6.26285 2.64751 7.2435 2.3253C8.22415 2.0031 9.27477 1.84223 10.3336 1.85216ZM51.6664 48.1478H10.3336C9.27477 48.1578 8.22415 47.9969 7.2435 47.6747C6.26285 47.3525 5.37197 46.8755 4.6232 46.2716C3.87444 45.6678 3.28291 44.9493 2.88337 44.1585C2.48384 43.3676 2.28437 42.5203 2.29668 41.6664V11.1113H59.7033V41.6664C59.7156 42.5203 59.5162 43.3676 59.1166 44.1585C58.7171 44.9493 58.1256 45.6678 57.3768 46.2716C56.628 46.8755 55.7371 47.3525 54.7565 47.6747C53.7758 47.9969 52.7252 48.1578 51.6664 48.1478Z" fill="#42F132"/>
<path d="M9.98825 44.4438C9.53701 44.4438 9.09021 44.3718 8.6736 44.232C8.25699 44.0922 7.87879 43.8872 7.56078 43.6291C7.24277 43.3709 6.99123 43.0645 6.82064 42.7276C6.65005 42.3907 6.56379 42.0299 6.56682 41.666V26.4625C6.56682 26.217 6.44586 25.9814 6.23054 25.8078C6.01522 25.6342 5.72319 25.5366 5.41869 25.5366C5.11418 25.5366 4.82215 25.6342 4.60683 25.8078C4.39152 25.9814 4.27055 26.217 4.27055 26.4625V41.666C4.26753 42.2731 4.41319 42.8747 4.69918 43.4363C4.98517 43.9979 5.40585 44.5084 5.93709 44.9385C6.46833 45.3686 7.09966 45.7099 7.79487 45.9428C8.49007 46.1757 9.23546 46.2956 9.98825 46.2956C10.2928 46.2956 10.5848 46.198 10.8001 46.0244C11.0154 45.8508 11.1364 45.6152 11.1364 45.3697C11.1364 45.1241 11.0154 44.8886 10.8001 44.715C10.5848 44.5413 10.2928 44.4438 9.98825 44.4438ZM16.0734 44.4438H13.9378C13.6333 44.4438 13.3413 44.5413 13.126 44.715C12.9107 44.8886 12.7897 45.1241 12.7897 45.3697C12.7897 45.6152 12.9107 45.8508 13.126 46.0244C13.3413 46.198 13.6333 46.2956 13.9378 46.2956H16.0734C16.3779 46.2956 16.6699 46.198 16.8852 46.0244C17.1005 45.8508 17.2215 45.6152 17.2215 45.3697C17.2215 45.1241 17.1005 44.8886 16.8852 44.715C16.6699 44.5413 16.3779 44.4438 16.0734 44.4438ZM41.9523 25.9255L26.4066 18.2219C25.8731 17.958 25.262 17.8138 24.6363 17.8042C24.0107 17.7946 23.3932 17.92 22.8477 18.1673C22.3022 18.4146 21.8486 18.7749 21.5336 19.211C21.2187 19.6471 21.0539 20.1431 21.0563 20.6478V36.1105C21.0563 36.8669 21.4288 37.5923 22.092 38.1271C22.7552 38.6619 23.6546 38.9624 24.5925 38.9624C25.2361 38.9679 25.8672 38.8197 26.4066 38.5364L42.0441 30.8514C42.5569 30.5958 42.9801 30.2388 43.2736 29.8142C43.5672 29.3896 43.7212 28.9116 43.7212 28.4255C43.7212 27.9394 43.5672 27.4613 43.2736 27.0367C42.9801 26.6122 42.5569 26.2551 42.0441 25.9996L41.9523 25.9255ZM40.7353 29.1847L25.1206 36.8883C24.9347 36.9819 24.7199 37.0315 24.5007 37.0315C24.2814 37.0315 24.0666 36.9819 23.8807 36.8883C23.6898 36.8017 23.5314 36.6751 23.4223 36.5219C23.3131 36.3687 23.2573 36.1946 23.2607 36.018V20.6478C23.2565 20.4735 23.3121 20.3016 23.4216 20.1513C23.531 20.0009 23.6899 19.878 23.8807 19.7959C24.0701 19.7105 24.2836 19.6658 24.5007 19.6663C24.7205 19.6678 24.9353 19.7191 25.1206 19.8145L40.7353 27.4995C40.9169 27.5884 41.0672 27.7134 41.1718 27.8626C41.2763 28.0117 41.3316 28.18 41.3323 28.3514C41.337 28.5211 41.2839 28.6886 41.1786 28.8355C41.0733 28.9825 40.9199 29.1033 40.7353 29.1847Z" fill="#42F132"/>
</svg>
